<mxfile host="app.diagrams.net" modified="2021-10-31T14:03:17.700Z" agent="5.0 (Macintosh; Intel Mac OS X 10_15_7) AppleWebKit/537.36 (KHTML, like Gecko) Chrome/95.0.4638.69 Safari/537.36" etag="skGBgNZbmwY_C26pspMR" version="15.6.3" type="github">
  <diagram id="1BBLTeyoPvuQMCn27ciU" name="Page-1">
    <mxGraphModel dx="1113" dy="1891" grid="1" gridSize="10" guides="1" tooltips="1" connect="1" arrows="1" fold="1" page="1" pageScale="1" pageWidth="827" pageHeight="1169" math="0" shadow="0">
      <root>
        <mxCell id="0" />
        <mxCell id="1" parent="0" />
        <mxCell id="ADYuSWJjQjwnzAj35K0c-1" value="插件小组对外协作流程" style="swimlane;html=1;childLayout=stackLayout;startSize=20;rounded=0;shadow=0;labelBackgroundColor=none;strokeWidth=1;fontFamily=Verdana;fontSize=8;align=center;direction=east;swimlaneFillColor=none;" parent="1" vertex="1">
          <mxGeometry x="50" y="-390" width="970" height="550" as="geometry" />
        </mxCell>
        <mxCell id="ADYuSWJjQjwnzAj35K0c-2" value="项目经理" style="swimlane;html=1;startSize=20;fillColor=#B0E3E6;strokeColor=#0e8088;" parent="ADYuSWJjQjwnzAj35K0c-1" vertex="1">
          <mxGeometry y="20" width="210" height="530" as="geometry" />
        </mxCell>
        <mxCell id="ADYuSWJjQjwnzAj35K0c-67" value="" style="edgeStyle=orthogonalEdgeStyle;rounded=0;orthogonalLoop=1;jettySize=auto;html=1;entryX=0.5;entryY=0;entryDx=0;entryDy=0;sketch=0;shadow=0;" parent="ADYuSWJjQjwnzAj35K0c-2" source="ADYuSWJjQjwnzAj35K0c-3" target="ADYuSWJjQjwnzAj35K0c-40" edge="1">
          <mxGeometry relative="1" as="geometry" />
        </mxCell>
        <mxCell id="ADYuSWJjQjwnzAj35K0c-3" value="插件需求" style="rounded=0;whiteSpace=wrap;html=1;fillColor=#b0e3e6;strokeColor=#0e8088;" parent="ADYuSWJjQjwnzAj35K0c-2" vertex="1">
          <mxGeometry x="35" y="60" width="120" height="60" as="geometry" />
        </mxCell>
        <mxCell id="ADYuSWJjQjwnzAj35K0c-36" value="插件上线" style="rounded=0;whiteSpace=wrap;html=1;fillColor=#b0e3e6;strokeColor=#0e8088;" parent="ADYuSWJjQjwnzAj35K0c-2" vertex="1">
          <mxGeometry x="35" y="450" width="120" height="60" as="geometry" />
        </mxCell>
        <mxCell id="28zmSZxoBX5Dbn3FLjTo-9" style="edgeStyle=orthogonalEdgeStyle;rounded=0;orthogonalLoop=1;jettySize=auto;html=1;entryX=0.5;entryY=0;entryDx=0;entryDy=0;endArrow=classic;endFill=1;" edge="1" parent="ADYuSWJjQjwnzAj35K0c-2" source="ADYuSWJjQjwnzAj35K0c-40" target="28zmSZxoBX5Dbn3FLjTo-8">
          <mxGeometry relative="1" as="geometry" />
        </mxCell>
        <mxCell id="28zmSZxoBX5Dbn3FLjTo-23" value="满足" style="edgeLabel;html=1;align=center;verticalAlign=middle;resizable=0;points=[];" vertex="1" connectable="0" parent="28zmSZxoBX5Dbn3FLjTo-9">
          <mxGeometry x="-0.6843" relative="1" as="geometry">
            <mxPoint as="offset" />
          </mxGeometry>
        </mxCell>
        <mxCell id="ADYuSWJjQjwnzAj35K0c-40" value="插件市场满足要求" style="rhombus;whiteSpace=wrap;html=1;fillColor=none;strokeColor=default;" parent="ADYuSWJjQjwnzAj35K0c-2" vertex="1">
          <mxGeometry x="35" y="170" width="120" height="60" as="geometry" />
        </mxCell>
        <mxCell id="28zmSZxoBX5Dbn3FLjTo-10" style="edgeStyle=orthogonalEdgeStyle;rounded=0;orthogonalLoop=1;jettySize=auto;html=1;entryX=0.5;entryY=0;entryDx=0;entryDy=0;endArrow=classic;endFill=1;" edge="1" parent="ADYuSWJjQjwnzAj35K0c-2" source="28zmSZxoBX5Dbn3FLjTo-8" target="ADYuSWJjQjwnzAj35K0c-36">
          <mxGeometry relative="1" as="geometry" />
        </mxCell>
        <mxCell id="28zmSZxoBX5Dbn3FLjTo-22" value="通过" style="edgeLabel;html=1;align=center;verticalAlign=middle;resizable=0;points=[];" vertex="1" connectable="0" parent="28zmSZxoBX5Dbn3FLjTo-10">
          <mxGeometry x="-0.4763" y="2" relative="1" as="geometry">
            <mxPoint as="offset" />
          </mxGeometry>
        </mxCell>
        <mxCell id="28zmSZxoBX5Dbn3FLjTo-8" value="插件验证" style="rhombus;whiteSpace=wrap;html=1;fillColor=none;strokeColor=default;" vertex="1" parent="ADYuSWJjQjwnzAj35K0c-2">
          <mxGeometry x="35" y="330" width="120" height="60" as="geometry" />
        </mxCell>
        <mxCell id="ADYuSWJjQjwnzAj35K0c-4" value="产品经理" style="swimlane;html=1;startSize=20;fillColor=#d5e8d4;strokeColor=#82b366;swimlaneFillColor=none;" parent="ADYuSWJjQjwnzAj35K0c-1" vertex="1">
          <mxGeometry x="210" y="20" width="190" height="530" as="geometry" />
        </mxCell>
        <mxCell id="ADYuSWJjQjwnzAj35K0c-6" value="插件发布" style="rounded=0;whiteSpace=wrap;html=1;fillColor=#d5e8d4;strokeColor=#82b366;" parent="ADYuSWJjQjwnzAj35K0c-4" vertex="1">
          <mxGeometry x="35" y="450" width="120" height="60" as="geometry" />
        </mxCell>
        <mxCell id="ADYuSWJjQjwnzAj35K0c-105" value="需求技术沟通" style="rounded=0;whiteSpace=wrap;html=1;fillColor=#d5e8d4;strokeColor=#82b366;gradientDirection=east;gradientColor=#FFF2CC;" parent="ADYuSWJjQjwnzAj35K0c-4" vertex="1">
          <mxGeometry x="35" y="170" width="120" height="60" as="geometry" />
        </mxCell>
        <mxCell id="ADYuSWJjQjwnzAj35K0c-9" value="架构组" style="swimlane;html=1;startSize=20;fillColor=#e1d5e7;strokeColor=#9673a6;" parent="ADYuSWJjQjwnzAj35K0c-1" vertex="1">
          <mxGeometry x="400" y="20" width="190" height="530" as="geometry">
            <mxRectangle x="570" y="20" width="30" height="660" as="alternateBounds" />
          </mxGeometry>
        </mxCell>
        <mxCell id="ADYuSWJjQjwnzAj35K0c-8" value="环境搭建" style="rounded=0;whiteSpace=wrap;html=1;fillColor=#e1d5e7;strokeColor=#9673a6;" parent="ADYuSWJjQjwnzAj35K0c-9" vertex="1">
          <mxGeometry x="35" y="170" width="120" height="60" as="geometry" />
        </mxCell>
        <mxCell id="ADYuSWJjQjwnzAj35K0c-14" value="开发组" style="swimlane;html=1;startSize=20;direction=east;fillColor=#fff2cc;strokeColor=#d6b656;" parent="ADYuSWJjQjwnzAj35K0c-1" vertex="1">
          <mxGeometry x="590" y="20" width="190" height="530" as="geometry" />
        </mxCell>
        <mxCell id="28zmSZxoBX5Dbn3FLjTo-13" value="插件开发，手册编写" style="rounded=0;whiteSpace=wrap;html=1;fillColor=#fff2cc;strokeColor=#d6b656;" vertex="1" parent="ADYuSWJjQjwnzAj35K0c-14">
          <mxGeometry x="35" y="170" width="120" height="60" as="geometry" />
        </mxCell>
        <mxCell id="ADYuSWJjQjwnzAj35K0c-26" value="测试组" style="swimlane;html=1;startSize=20;direction=east;fillColor=#f8cecc;strokeColor=#b85450;" parent="ADYuSWJjQjwnzAj35K0c-1" vertex="1">
          <mxGeometry x="780" y="20" width="190" height="530" as="geometry" />
        </mxCell>
        <mxCell id="28zmSZxoBX5Dbn3FLjTo-28" value="插件测试" style="rhombus;whiteSpace=wrap;html=1;fillColor=#f8cecc;strokeColor=#b85450;" vertex="1" parent="ADYuSWJjQjwnzAj35K0c-26">
          <mxGeometry x="35" y="170" width="120" height="60" as="geometry" />
        </mxCell>
        <mxCell id="28zmSZxoBX5Dbn3FLjTo-5" style="edgeStyle=orthogonalEdgeStyle;rounded=0;orthogonalLoop=1;jettySize=auto;html=1;entryX=0;entryY=0.5;entryDx=0;entryDy=0;" edge="1" parent="ADYuSWJjQjwnzAj35K0c-1" source="ADYuSWJjQjwnzAj35K0c-40" target="ADYuSWJjQjwnzAj35K0c-105">
          <mxGeometry relative="1" as="geometry" />
        </mxCell>
        <mxCell id="28zmSZxoBX5Dbn3FLjTo-24" value="不满足" style="edgeLabel;html=1;align=center;verticalAlign=middle;resizable=0;points=[];" vertex="1" connectable="0" parent="28zmSZxoBX5Dbn3FLjTo-5">
          <mxGeometry x="-0.3378" y="1" relative="1" as="geometry">
            <mxPoint as="offset" />
          </mxGeometry>
        </mxCell>
        <mxCell id="28zmSZxoBX5Dbn3FLjTo-6" style="edgeStyle=orthogonalEdgeStyle;rounded=0;orthogonalLoop=1;jettySize=auto;html=1;entryX=0;entryY=0.5;entryDx=0;entryDy=0;" edge="1" parent="ADYuSWJjQjwnzAj35K0c-1" source="ADYuSWJjQjwnzAj35K0c-105" target="ADYuSWJjQjwnzAj35K0c-8">
          <mxGeometry relative="1" as="geometry" />
        </mxCell>
        <mxCell id="28zmSZxoBX5Dbn3FLjTo-12" style="edgeStyle=orthogonalEdgeStyle;rounded=0;orthogonalLoop=1;jettySize=auto;html=1;entryX=0;entryY=0.5;entryDx=0;entryDy=0;endArrow=classic;endFill=1;" edge="1" parent="ADYuSWJjQjwnzAj35K0c-1" source="ADYuSWJjQjwnzAj35K0c-36" target="ADYuSWJjQjwnzAj35K0c-6">
          <mxGeometry relative="1" as="geometry" />
        </mxCell>
        <mxCell id="28zmSZxoBX5Dbn3FLjTo-14" style="edgeStyle=orthogonalEdgeStyle;rounded=0;orthogonalLoop=1;jettySize=auto;html=1;entryX=0;entryY=0.5;entryDx=0;entryDy=0;endArrow=classic;endFill=1;" edge="1" parent="ADYuSWJjQjwnzAj35K0c-1" source="ADYuSWJjQjwnzAj35K0c-8" target="28zmSZxoBX5Dbn3FLjTo-13">
          <mxGeometry relative="1" as="geometry" />
        </mxCell>
        <mxCell id="28zmSZxoBX5Dbn3FLjTo-16" style="edgeStyle=orthogonalEdgeStyle;rounded=0;orthogonalLoop=1;jettySize=auto;html=1;entryX=0.5;entryY=0;entryDx=0;entryDy=0;endArrow=classic;endFill=1;jumpStyle=arc;exitX=0.5;exitY=1;exitDx=0;exitDy=0;" edge="1" parent="ADYuSWJjQjwnzAj35K0c-1" source="28zmSZxoBX5Dbn3FLjTo-28" target="28zmSZxoBX5Dbn3FLjTo-8">
          <mxGeometry relative="1" as="geometry">
            <mxPoint x="795.1176470588239" y="320.05882352941194" as="sourcePoint" />
          </mxGeometry>
        </mxCell>
        <mxCell id="28zmSZxoBX5Dbn3FLjTo-19" value="通过" style="edgeLabel;html=1;align=center;verticalAlign=middle;resizable=0;points=[];" vertex="1" connectable="0" parent="28zmSZxoBX5Dbn3FLjTo-16">
          <mxGeometry x="-0.2545" y="3" relative="1" as="geometry">
            <mxPoint x="225" y="-3" as="offset" />
          </mxGeometry>
        </mxCell>
        <mxCell id="28zmSZxoBX5Dbn3FLjTo-26" style="edgeStyle=orthogonalEdgeStyle;rounded=0;jumpStyle=arc;orthogonalLoop=1;jettySize=auto;html=1;entryX=0.5;entryY=1;entryDx=0;entryDy=0;endArrow=classic;endFill=1;" edge="1" parent="ADYuSWJjQjwnzAj35K0c-1" source="28zmSZxoBX5Dbn3FLjTo-8" target="28zmSZxoBX5Dbn3FLjTo-13">
          <mxGeometry relative="1" as="geometry" />
        </mxCell>
        <mxCell id="28zmSZxoBX5Dbn3FLjTo-27" value="不通过" style="edgeLabel;html=1;align=center;verticalAlign=middle;resizable=0;points=[];" vertex="1" connectable="0" parent="28zmSZxoBX5Dbn3FLjTo-26">
          <mxGeometry x="-0.431" relative="1" as="geometry">
            <mxPoint x="-136" as="offset" />
          </mxGeometry>
        </mxCell>
        <mxCell id="28zmSZxoBX5Dbn3FLjTo-29" style="edgeStyle=orthogonalEdgeStyle;rounded=0;jumpStyle=arc;orthogonalLoop=1;jettySize=auto;html=1;exitX=0.5;exitY=0;exitDx=0;exitDy=0;entryX=0.5;entryY=0;entryDx=0;entryDy=0;endArrow=classic;endFill=1;" edge="1" parent="ADYuSWJjQjwnzAj35K0c-1" source="28zmSZxoBX5Dbn3FLjTo-28" target="28zmSZxoBX5Dbn3FLjTo-13">
          <mxGeometry relative="1" as="geometry" />
        </mxCell>
        <mxCell id="28zmSZxoBX5Dbn3FLjTo-30" value="不通过" style="edgeLabel;html=1;align=center;verticalAlign=middle;resizable=0;points=[];" vertex="1" connectable="0" parent="28zmSZxoBX5Dbn3FLjTo-29">
          <mxGeometry x="-0.3526" y="1" relative="1" as="geometry">
            <mxPoint as="offset" />
          </mxGeometry>
        </mxCell>
        <mxCell id="28zmSZxoBX5Dbn3FLjTo-31" style="edgeStyle=orthogonalEdgeStyle;rounded=0;jumpStyle=arc;orthogonalLoop=1;jettySize=auto;html=1;entryX=0;entryY=0.5;entryDx=0;entryDy=0;endArrow=classic;endFill=1;" edge="1" parent="ADYuSWJjQjwnzAj35K0c-1" source="28zmSZxoBX5Dbn3FLjTo-13" target="28zmSZxoBX5Dbn3FLjTo-28">
          <mxGeometry relative="1" as="geometry" />
        </mxCell>
      </root>
    </mxGraphModel>
  </diagram>
</mxfile>
